<svg width="152" height="152" viewBox="0 0 152 152" fill="none" xmlns="http://www.w3.org/2000/svg">
<path d="M143.855 136.024C143.711 136.072 143.639 136.012 143.639 135.844C143.807 135.34 143.771 134.896 143.531 134.512C143.315 134.128 142.907 133.936 142.307 133.936C141.539 133.936 140.915 134.416 140.435 135.376C139.979 136.336 139.751 137.584 139.751 139.12C139.751 140.248 140.195 140.812 141.083 140.812C141.491 140.812 141.935 140.668 142.415 140.38C142.919 140.068 143.375 139.672 143.783 139.192C143.879 139.144 143.963 139.156 144.035 139.228C144.107 139.3 144.119 139.384 144.071 139.48C143.471 140.248 142.799 140.86 142.055 141.316C141.311 141.772 140.519 142 139.679 142C139.151 142 138.707 141.82 138.347 141.46C137.987 141.076 137.807 140.548 137.807 139.876C137.807 139.036 137.975 138.196 138.311 137.356C138.671 136.492 139.127 135.724 139.679 135.052C140.231 134.38 140.831 133.84 141.479 133.432C142.127 133 142.763 132.784 143.387 132.784C143.939 132.784 144.371 132.94 144.683 133.252C144.995 133.564 145.151 133.912 145.151 134.296C145.151 134.44 145.103 134.596 145.007 134.764C144.935 134.932 144.827 135.1 144.683 135.268C144.563 135.436 144.419 135.592 144.251 135.736C144.107 135.88 143.975 135.976 143.855 136.024Z" fill="white"/>
<path d="M135.893 139.732C135.941 139.684 136.001 139.684 136.073 139.732C136.145 139.78 136.169 139.852 136.145 139.948C135.713 140.572 135.233 141.076 134.705 141.46C134.177 141.82 133.673 142 133.193 142C132.641 142 132.281 141.616 132.113 140.848C131.969 140.056 132.053 139.12 132.365 138.04C131.717 139.072 131.009 139.96 130.241 140.704C129.497 141.424 128.705 141.856 127.865 142C127.289 142 126.845 141.736 126.533 141.208C126.221 140.68 126.065 140.068 126.065 139.372C126.065 138.58 126.257 137.8 126.641 137.032C127.025 136.24 127.529 135.532 128.153 134.908C128.801 134.284 129.509 133.78 130.277 133.396C131.069 132.988 131.861 132.784 132.653 132.784C133.493 132.784 134.153 132.988 134.633 133.396C134.873 133.228 135.173 133.084 135.533 132.964C135.917 132.844 136.253 132.784 136.541 132.784C136.637 132.784 136.685 132.844 136.685 132.964C136.133 133.636 135.653 134.38 135.245 135.196C134.861 135.988 134.561 136.756 134.345 137.5C134.129 138.22 133.997 138.868 133.949 139.444C133.901 140.02 133.949 140.416 134.093 140.632C134.213 140.776 134.417 140.824 134.705 140.776C134.993 140.704 135.389 140.356 135.893 139.732ZM128.981 140.668C129.269 140.668 129.617 140.488 130.025 140.128C130.457 139.768 130.901 139.288 131.357 138.688C131.813 138.088 132.257 137.416 132.689 136.672C133.145 135.928 133.541 135.172 133.877 134.404C133.781 134.092 133.553 133.84 133.193 133.648C132.857 133.456 132.461 133.36 132.005 133.36C131.453 133.36 130.937 133.504 130.457 133.792C129.977 134.056 129.557 134.44 129.197 134.944C128.861 135.424 128.585 136.012 128.369 136.708C128.177 137.38 128.081 138.124 128.081 138.94C128.081 139.468 128.165 139.888 128.333 140.2C128.525 140.512 128.741 140.668 128.981 140.668Z" fill="white"/>
<path d="M124.794 131.236C124.722 131.308 124.638 131.308 124.542 131.236C124.47 131.164 124.41 131.068 124.362 130.948C124.314 130.804 124.29 130.66 124.29 130.516C124.29 130.348 124.326 130.204 124.398 130.084C124.662 129.748 125.046 129.328 125.55 128.824C126.078 128.296 126.618 127.852 127.17 127.492C127.242 127.468 127.314 127.492 127.386 127.564C127.458 127.612 127.47 127.66 127.422 127.708C126.918 128.164 126.438 128.716 125.982 129.364C125.526 129.988 125.13 130.612 124.794 131.236ZM122.382 134.26C121.878 134.524 121.41 134.836 120.978 135.196C120.906 135.244 120.846 135.232 120.798 135.16C120.75 135.088 120.738 135.016 120.762 134.944C120.906 134.8 121.11 134.632 121.374 134.44C121.662 134.248 121.974 134.056 122.31 133.864C122.67 133.648 123.03 133.456 123.39 133.288C123.75 133.096 124.086 132.928 124.398 132.784C124.638 132.784 124.734 132.892 124.686 133.108C123.846 136.444 122.886 139.24 121.806 141.496C120.726 143.752 119.574 145.564 118.35 146.932C117.126 148.324 115.866 149.308 114.57 149.884C113.274 150.484 111.978 150.784 110.682 150.784C109.842 150.784 109.254 150.448 108.918 149.776C108.582 149.128 108.546 148.288 108.81 147.256C108.858 147.184 108.918 147.148 108.99 147.148C109.062 147.148 109.11 147.196 109.134 147.292C109.014 147.988 109.242 148.552 109.818 148.984C110.37 149.44 111.222 149.668 112.374 149.668C113.334 149.668 114.246 149.464 115.11 149.056C115.974 148.648 116.814 147.88 117.63 146.752C118.446 145.624 119.238 144.052 120.006 142.036C120.798 140.044 121.59 137.452 122.382 134.26Z" fill="white"/>
<path d="M118.596 139.732C118.644 139.684 118.704 139.684 118.776 139.732C118.848 139.78 118.872 139.852 118.848 139.948C118.416 140.572 117.936 141.076 117.408 141.46C116.88 141.82 116.376 142 115.896 142C115.344 142 114.984 141.616 114.816 140.848C114.672 140.056 114.756 139.12 115.068 138.04C114.42 139.072 113.712 139.96 112.944 140.704C112.2 141.424 111.408 141.856 110.568 142C109.992 142 109.548 141.736 109.236 141.208C108.924 140.68 108.768 140.068 108.768 139.372C108.768 138.58 108.96 137.8 109.344 137.032C109.728 136.24 110.232 135.532 110.856 134.908C111.504 134.284 112.212 133.78 112.98 133.396C113.772 132.988 114.564 132.784 115.356 132.784C116.196 132.784 116.856 132.988 117.336 133.396C117.576 133.228 117.876 133.084 118.236 132.964C118.62 132.844 118.956 132.784 119.244 132.784C119.34 132.784 119.388 132.844 119.388 132.964C118.836 133.636 118.356 134.38 117.948 135.196C117.564 135.988 117.264 136.756 117.048 137.5C116.832 138.22 116.7 138.868 116.652 139.444C116.604 140.02 116.652 140.416 116.796 140.632C116.916 140.776 117.12 140.824 117.408 140.776C117.696 140.704 118.092 140.356 118.596 139.732ZM111.684 140.668C111.972 140.668 112.32 140.488 112.728 140.128C113.16 139.768 113.604 139.288 114.06 138.688C114.516 138.088 114.96 137.416 115.392 136.672C115.848 135.928 116.244 135.172 116.58 134.404C116.484 134.092 116.256 133.84 115.896 133.648C115.56 133.456 115.164 133.36 114.708 133.36C114.156 133.36 113.64 133.504 113.16 133.792C112.68 134.056 112.26 134.44 111.9 134.944C111.564 135.424 111.288 136.012 111.072 136.708C110.88 137.38 110.784 138.124 110.784 138.94C110.784 139.468 110.868 139.888 111.036 140.2C111.228 140.512 111.444 140.668 111.684 140.668Z" fill="white"/>
<path d="M100.848 118.816C102.048 118.816 103.152 118.936 104.16 119.176C105.168 119.392 106.284 119.692 107.508 120.076C108.108 120.268 108.552 120.364 108.84 120.364C109.128 120.34 109.44 120.184 109.776 119.896C109.896 119.776 110.184 119.716 110.64 119.716C110.856 119.716 110.928 119.8 110.856 119.968C109.344 121.384 107.76 122.86 106.104 124.396C104.472 125.908 102.804 127.468 101.1 129.076C99.4203 130.66 97.7283 132.256 96.0243 133.864C94.3203 135.472 92.6643 137.044 91.0563 138.58C91.6323 138.532 92.2083 138.592 92.7843 138.76C93.3843 138.904 94.0563 139.084 94.8003 139.3C95.5443 139.492 96.4083 139.684 97.3923 139.876C98.3763 140.044 99.5403 140.128 100.884 140.128C102.54 140.128 103.836 139.78 104.772 139.084C105.708 138.388 106.476 137.344 107.076 135.952C107.148 135.904 107.244 135.916 107.364 135.988C107.508 136.06 107.556 136.156 107.508 136.276C107.028 137.284 106.524 138.16 105.996 138.904C105.468 139.648 104.868 140.272 104.196 140.776C103.548 141.28 102.792 141.652 101.928 141.892C101.088 142.132 100.128 142.252 99.0483 142.252C98.1843 142.252 97.4043 142.204 96.7083 142.108C96.0123 142.036 95.3643 141.928 94.7643 141.784C94.1883 141.64 93.6243 141.484 93.0723 141.316C92.5203 141.124 91.9443 140.944 91.3443 140.776C90.6003 140.56 89.9763 140.536 89.4723 140.704C88.9683 140.872 88.3803 141.304 87.7083 142C87.5643 142.048 87.3963 142.012 87.2043 141.892C87.0123 141.748 86.9523 141.616 87.0243 141.496C89.0643 139.576 90.9003 137.836 92.5323 136.276C94.1883 134.692 95.7843 133.168 97.3203 131.704C98.8563 130.216 100.404 128.728 101.964 127.24C103.548 125.752 105.288 124.12 107.184 122.344C106.056 121.96 104.82 121.6 103.476 121.264C102.156 120.928 100.812 120.76 99.4443 120.76C98.0043 120.76 96.9363 121.132 96.2403 121.876C95.5683 122.62 95.1123 123.712 94.8723 125.152C94.8003 125.272 94.7043 125.32 94.5843 125.296C94.4883 125.248 94.4283 125.164 94.4043 125.044C94.5723 124.132 94.8123 123.292 95.1243 122.524C95.4363 121.756 95.8443 121.096 96.3483 120.544C96.8523 119.992 97.4643 119.572 98.1843 119.284C98.9283 118.972 99.8163 118.816 100.848 118.816Z" fill="white"/>
<path d="M90.8123 115.252C91.1723 115.252 91.4603 115.348 91.6763 115.54C91.9163 115.708 92.0723 115.948 92.1443 116.26C92.2403 116.548 92.2523 116.884 92.1803 117.268C92.1323 117.652 92.0003 118.036 91.7843 118.42C91.7363 118.468 91.6763 118.468 91.6043 118.42C91.5323 118.372 91.4843 118.312 91.4603 118.24C91.5083 117.952 91.4003 117.712 91.1363 117.52C90.8963 117.328 90.5123 117.232 89.9843 117.232C89.0003 117.232 88.0043 117.604 86.9963 118.348C86.0123 119.068 85.0523 120.028 84.1163 121.228C83.1803 122.428 82.3043 123.808 81.4883 125.368C80.6723 126.928 79.9643 128.536 79.3643 130.192C78.7643 131.848 78.2843 133.492 77.9243 135.124C77.5883 136.756 77.4203 138.244 77.4203 139.588C77.4203 140.308 77.6243 140.668 78.0323 140.668C78.3203 140.668 78.5963 140.548 78.8603 140.308C79.1483 140.068 79.4723 139.708 79.8323 139.228C79.9043 139.18 79.9643 139.192 80.0123 139.264C80.0843 139.312 80.1083 139.384 80.0843 139.48C79.6043 140.2 79.0403 140.8 78.3923 141.28C77.7443 141.76 77.1563 142 76.6283 142C76.1723 142 75.8483 141.868 75.6563 141.604C75.4883 141.34 75.4043 141.004 75.4043 140.596C75.4043 139.468 75.6443 138.064 76.1243 136.384C76.6043 134.68 77.2403 132.892 78.0323 131.02C78.8483 129.124 79.7843 127.24 80.8403 125.368C81.8963 123.496 82.9883 121.816 84.1163 120.328C85.2683 118.816 86.4203 117.592 87.5723 116.656C88.7243 115.72 89.8043 115.252 90.8123 115.252Z" fill="white"/>
<path d="M74.3133 134.584C74.3133 135.952 72.5013 136.888 68.8773 137.392C68.8533 137.632 68.8293 137.872 68.8053 138.112C68.8053 138.352 68.8053 138.604 68.8053 138.868C68.8053 139.492 68.9493 139.972 69.2373 140.308C69.5253 140.644 69.9813 140.812 70.6053 140.812C71.0613 140.812 71.5293 140.68 72.0093 140.416C72.4893 140.152 72.8733 139.816 73.1613 139.408C73.2573 139.36 73.3293 139.384 73.3773 139.48C73.4253 139.552 73.4373 139.636 73.4133 139.732C72.9333 140.356 72.3213 140.896 71.5773 141.352C70.8573 141.784 70.0773 142 69.2373 142C68.3973 142 67.7853 141.796 67.4013 141.388C67.0413 140.956 66.8613 140.356 66.8613 139.588C66.8613 138.844 67.0173 138.076 67.3293 137.284C67.6413 136.468 68.0373 135.724 68.5173 135.052C69.0213 134.38 69.5853 133.84 70.2093 133.432C70.8573 133 71.5053 132.784 72.1533 132.784C72.8013 132.784 73.3173 132.976 73.7013 133.36C74.1093 133.72 74.3133 134.128 74.3133 134.584ZM71.1813 133.72C70.6293 133.72 70.1493 133.984 69.7413 134.512C69.3573 135.016 69.0933 135.808 68.9493 136.888C70.1013 136.768 70.9533 136.552 71.5053 136.24C72.0573 135.904 72.3333 135.496 72.3333 135.016C72.3333 134.656 72.2253 134.356 72.0093 134.116C71.7933 133.852 71.5173 133.72 71.1813 133.72Z" fill="white"/>
<path d="M65.5288 131.236C65.4568 131.308 65.3728 131.308 65.2768 131.236C65.2048 131.164 65.1448 131.068 65.0968 130.948C65.0488 130.804 65.0248 130.66 65.0248 130.516C65.0248 130.348 65.0608 130.204 65.1328 130.084C65.3968 129.748 65.7808 129.328 66.2848 128.824C66.8128 128.296 67.3528 127.852 67.9048 127.492C67.9528 127.468 68.0128 127.492 68.0848 127.564C68.1568 127.612 68.1808 127.66 68.1568 127.708C67.6528 128.164 67.1728 128.716 66.7168 129.364C66.2608 129.988 65.8648 130.612 65.5288 131.236ZM61.6768 135.304C61.6048 135.352 61.5448 135.34 61.4968 135.268C61.4488 135.172 61.4368 135.088 61.4608 135.016C62.3488 134.296 63.5848 133.552 65.1688 132.784C65.3608 132.784 65.4568 132.892 65.4568 133.108C65.1448 133.66 64.8328 134.26 64.5208 134.908C64.2328 135.556 63.9688 136.204 63.7288 136.852C63.5128 137.476 63.3328 138.088 63.1888 138.688C63.0448 139.264 62.9728 139.744 62.9728 140.128C62.9728 140.608 63.1408 140.848 63.4768 140.848C63.7408 140.848 63.9928 140.74 64.2328 140.524C64.4968 140.284 64.7968 139.984 65.1328 139.624C65.1808 139.576 65.2408 139.588 65.3128 139.66C65.3848 139.708 65.3968 139.792 65.3488 139.912C64.8208 140.536 64.2928 141.04 63.7648 141.424C63.2608 141.808 62.7688 142 62.2888 142C61.4488 142 61.0288 141.604 61.0288 140.812C61.0288 140.38 61.0888 139.876 61.2088 139.3C61.3528 138.7 61.5328 138.1 61.7488 137.5C61.9888 136.876 62.2408 136.276 62.5048 135.7C62.7928 135.1 63.0808 134.584 63.3688 134.152C63.1048 134.296 62.8048 134.476 62.4688 134.692C62.1568 134.908 61.8928 135.112 61.6768 135.304Z" fill="white"/>
<path d="M59.5072 139.48C59.5552 139.432 59.6152 139.444 59.6872 139.516C59.7592 139.564 59.7832 139.636 59.7592 139.732C59.3272 140.332 58.8232 140.86 58.2472 141.316C57.6952 141.772 57.1432 142 56.5912 142C56.1832 142 55.8592 141.868 55.6192 141.604C55.4032 141.34 55.2952 140.992 55.2952 140.56C55.2952 139.72 55.4392 138.808 55.7272 137.824C56.0392 136.84 56.4472 135.844 56.9512 134.836C57.0232 134.668 57.0592 134.488 57.0592 134.296C57.0592 134.056 56.9512 133.936 56.7352 133.936C55.8472 133.936 54.8632 134.548 53.7832 135.772C52.7032 136.972 51.7072 138.892 50.7952 141.532C50.7712 141.604 50.6872 141.676 50.5432 141.748C50.4232 141.796 50.2792 141.844 50.1112 141.892C49.9432 141.916 49.7752 141.94 49.6072 141.964C49.4392 141.988 49.3072 142 49.2112 142C49.0912 142 48.9952 141.976 48.9232 141.928C48.8752 141.88 48.8752 141.796 48.9232 141.676C49.3312 140.644 49.7392 139.516 50.1472 138.292C50.5792 137.044 50.9512 135.796 51.2632 134.548C51.3352 134.308 51.3472 134.14 51.2992 134.044C51.2512 133.924 51.1672 133.864 51.0472 133.864C50.7832 133.864 50.5312 133.984 50.2912 134.224C50.0512 134.44 49.8352 134.68 49.6432 134.944C49.5712 134.992 49.4992 134.98 49.4272 134.908C49.3792 134.836 49.3672 134.764 49.3912 134.692C49.5112 134.524 49.6672 134.332 49.8592 134.116C50.0752 133.9 50.3152 133.696 50.5792 133.504C50.8432 133.288 51.1192 133.12 51.4072 133C51.6952 132.856 51.9832 132.784 52.2712 132.784C52.6792 132.784 52.9432 132.916 53.0632 133.18C53.2072 133.42 53.2432 133.72 53.1712 134.08C53.0512 134.608 52.9192 135.112 52.7752 135.592C52.6552 136.048 52.4992 136.564 52.3072 137.14C52.5952 136.612 52.9432 136.096 53.3512 135.592C53.7832 135.064 54.2512 134.596 54.7552 134.188C55.2832 133.756 55.8472 133.42 56.4472 133.18C57.0472 132.916 57.6832 132.784 58.3552 132.784C58.6432 132.784 58.8592 132.856 59.0032 133C59.1712 133.144 59.2552 133.312 59.2552 133.504C59.2552 133.84 59.1712 134.14 59.0032 134.404C58.4992 135.316 58.0672 136.264 57.7072 137.248C57.3712 138.208 57.2032 139.072 57.2032 139.84C57.2032 140.464 57.4072 140.776 57.8152 140.776C58.0792 140.776 58.3432 140.668 58.6072 140.452C58.8712 140.236 59.1712 139.912 59.5072 139.48Z" fill="white"/>
<path d="M47.3697 139.732C47.4177 139.684 47.4777 139.684 47.5497 139.732C47.6217 139.78 47.6457 139.852 47.6217 139.948C47.1897 140.572 46.7097 141.076 46.1817 141.46C45.6537 141.82 45.1497 142 44.6697 142C44.1177 142 43.7578 141.616 43.5898 140.848C43.4457 140.056 43.5297 139.12 43.8417 138.04C43.1937 139.072 42.4857 139.96 41.7177 140.704C40.9737 141.424 40.1817 141.856 39.3417 142C38.7657 142 38.3217 141.736 38.0097 141.208C37.6977 140.68 37.5417 140.068 37.5417 139.372C37.5417 138.58 37.7337 137.8 38.1177 137.032C38.5017 136.24 39.0057 135.532 39.6297 134.908C40.2777 134.284 40.9857 133.78 41.7537 133.396C42.5457 132.988 43.3378 132.784 44.1298 132.784C44.9698 132.784 45.6298 132.988 46.1098 133.396C46.3498 133.228 46.6497 133.084 47.0097 132.964C47.3937 132.844 47.7298 132.784 48.0178 132.784C48.1138 132.784 48.1617 132.844 48.1617 132.964C47.6097 133.636 47.1298 134.38 46.7218 135.196C46.3378 135.988 46.0377 136.756 45.8217 137.5C45.6057 138.22 45.4737 138.868 45.4257 139.444C45.3777 140.02 45.4257 140.416 45.5697 140.632C45.6897 140.776 45.8937 140.824 46.1817 140.776C46.4697 140.704 46.8657 140.356 47.3697 139.732ZM40.4578 140.668C40.7458 140.668 41.0937 140.488 41.5017 140.128C41.9337 139.768 42.3777 139.288 42.8337 138.688C43.2897 138.088 43.7338 137.416 44.1658 136.672C44.6218 135.928 45.0178 135.172 45.3538 134.404C45.2578 134.092 45.0297 133.84 44.6697 133.648C44.3337 133.456 43.9377 133.36 43.4817 133.36C42.9297 133.36 42.4137 133.504 41.9337 133.792C41.4537 134.056 41.0337 134.44 40.6737 134.944C40.3377 135.424 40.0618 136.012 39.8458 136.708C39.6538 137.38 39.5577 138.124 39.5577 138.94C39.5577 139.468 39.6417 139.888 39.8097 140.2C40.0017 140.512 40.2178 140.668 40.4578 140.668Z" fill="white"/>
<path d="M28.1321 120.616C29.3081 121.264 30.3881 122.044 31.3721 122.956C32.3801 123.844 33.2441 124.828 33.9641 125.908C34.6841 126.988 35.2361 128.116 35.6201 129.292C36.0281 130.468 36.2321 131.644 36.2321 132.82C36.2321 134.14 35.9801 135.364 35.4761 136.492C34.9721 137.62 34.2641 138.592 33.3521 139.408C32.4401 140.224 31.3361 140.86 30.0401 141.316C28.7681 141.772 27.3521 142 25.7921 142C24.8801 142 24.0281 141.952 23.2361 141.856C22.4441 141.736 21.6881 141.592 20.9681 141.424C20.2721 141.232 19.5881 141.028 18.9161 140.812C18.2681 140.572 17.6201 140.344 16.9721 140.128C16.0601 140.776 15.0401 141.256 13.9121 141.568C12.8081 141.856 11.5721 142 10.2041 142C9.43608 142 8.88408 141.916 8.54808 141.748C8.23608 141.556 8.08008 141.304 8.08008 140.992C8.08008 140.68 8.18808 140.344 8.40408 139.984C8.64408 139.6 8.96808 139.252 9.37608 138.94C9.80808 138.628 10.3001 138.376 10.8521 138.184C11.4281 137.968 12.0641 137.86 12.7601 137.86C13.6961 137.86 14.5481 137.944 15.3161 138.112C16.1081 138.28 16.8881 138.496 17.6561 138.76C18.4961 137.8 19.2881 136.504 20.0321 134.872C20.7761 133.24 21.5561 131.152 22.3721 128.608C22.8521 127.12 23.3681 125.8 23.9201 124.648C24.4961 123.496 25.1561 122.5 25.9001 121.66C24.9401 121.18 23.9201 120.82 22.8401 120.58C21.7841 120.316 20.6801 120.184 19.5281 120.184C18.4721 120.184 17.5481 120.34 16.7561 120.652C15.9881 120.964 15.3401 121.384 14.8121 121.912C14.2841 122.44 13.8641 123.052 13.5521 123.748C13.2401 124.444 13.0241 125.176 12.9041 125.944C12.8561 125.992 12.7961 126.004 12.7241 125.98C12.6521 125.956 12.6161 125.896 12.6161 125.8C12.7121 124.816 12.9761 123.904 13.4081 123.064C13.8401 122.2 14.4161 121.456 15.1361 120.832C15.8801 120.208 16.7561 119.716 17.7641 119.356C18.7721 118.996 19.9121 118.816 21.1841 118.816C22.2881 118.816 23.3561 118.948 24.3881 119.212C25.4201 119.452 26.4161 119.8 27.3761 120.256C28.0001 119.752 28.6721 119.332 29.3921 118.996C30.1361 118.66 30.9641 118.396 31.8761 118.204C31.9481 118.204 31.9841 118.252 31.9841 118.348C31.9841 118.42 31.9481 118.48 31.8761 118.528C30.4601 118.912 29.2121 119.608 28.1321 120.616ZM11.4281 141.352C12.4361 141.352 13.3361 141.256 14.1281 141.064C14.9441 140.848 15.7001 140.476 16.3961 139.948C15.6041 139.708 14.7881 139.504 13.9481 139.336C13.1081 139.168 12.1841 139.084 11.1761 139.084C10.6241 139.084 10.2161 139.18 9.95208 139.372C9.71208 139.564 9.59208 139.828 9.59208 140.164C9.59208 140.524 9.73608 140.812 10.0241 141.028C10.3361 141.244 10.8041 141.352 11.4281 141.352ZM27.5561 140.812C29.8601 140.812 31.5521 140.212 32.6321 139.012C33.7121 137.788 34.2521 136.096 34.2521 133.936C34.2521 132.808 34.0721 131.68 33.7121 130.552C33.3521 129.424 32.8481 128.344 32.2001 127.312C31.5521 126.28 30.7721 125.32 29.8601 124.432C28.9481 123.544 27.9281 122.776 26.8001 122.128C25.7201 123.592 24.7961 125.5 24.0281 127.852C23.1881 130.516 22.3121 132.76 21.4001 134.584C20.5121 136.384 19.4921 137.86 18.3401 139.012C18.9401 139.228 19.5521 139.444 20.1761 139.66C20.8241 139.852 21.5201 140.044 22.2641 140.236C23.0081 140.404 23.8121 140.548 24.6761 140.668C25.5401 140.764 26.5001 140.812 27.5561 140.812Z" fill="white"/>
<g filter="url(#filter0_d_1_5405)">
<path fill-rule="evenodd" clip-rule="evenodd" d="M46.52 62.44V45.16V40.68V24.04C46.6053 18.4933 46.6907 12.9893 46.776 7.528H54.84C63.2027 7.528 69.7307 10.6 74.424 16.744C77.0842 20.2264 78.9904 24.5997 80.1428 29.864H69.3121L68.2881 53.16H77.2481L80.5761 36.648H81.1674C81.3651 38.8138 81.464 41.0965 81.464 43.496C81.464 54.8453 79.0747 63.6347 74.296 69.864C69.5173 76.0933 62.776 79.208 54.072 79.208H46.776C46.6907 73.6613 46.6053 68.072 46.52 62.44ZM99.0293 36.648H81.1674C80.9478 34.2426 80.6063 31.9812 80.1428 29.864H97.8168C98.3646 32.0168 98.7687 34.2781 99.0293 36.648ZM94.3506 65.1555C97.7062 59.0861 99.384 51.8236 99.384 43.368C99.384 41.0386 99.2658 38.7986 99.0293 36.648H111.936L94.3506 65.1555ZM92.5156 68.1301L94.3506 65.1555C94.1165 65.5788 93.8744 65.9963 93.624 66.408C93.2671 66.9949 92.8976 67.569 92.5156 68.1301ZM92.5156 68.1301L67.0081 109.48V114.728H132.16L133.184 91.432H124.096L120.768 107.816H86.3361L131.008 34.984V29.864H97.8168C96.9497 26.4559 95.7228 23.3199 94.136 20.456C90.6373 14.1413 85.688 9.32 79.288 5.992C72.9733 2.664 65.5067 1 56.888 1H19V7.016L29.752 8.168C29.9227 13.6293 30.008 19.0907 30.008 24.552V40.68V45.16V62.312C30.008 67.8587 29.9227 73.32 29.752 78.696L19 79.848V85.864H54.456C63.2453 85.864 71.0107 84.2 77.752 80.872C83.8667 77.8533 88.788 73.606 92.5156 68.1301Z" fill="#5CE1E6"/>
</g>
<defs>
<filter id="filter0_d_1_5405" x="15" y="1" width="122.184" height="121.728" filterUnits="userSpaceOnUse" color-interpolation-filters="sRGB">
<feFlood flood-opacity="0" result="BackgroundImageFix"/>
<feColorMatrix in="SourceAlpha" type="matrix" values="0 0 0 0 0 0 0 0 0 0 0 0 0 0 0 0 0 0 127 0" result="hardAlpha"/>
<feOffset dy="4"/>
<feGaussianBlur stdDeviation="2"/>
<feComposite in2="hardAlpha" operator="out"/>
<feColorMatrix type="matrix" values="0 0 0 0 0 0 0 0 0 0 0 0 0 0 0 0 0 0 0.25 0"/>
<feBlend mode="normal" in2="BackgroundImageFix" result="effect1_dropShadow_1_5405"/>
<feBlend mode="normal" in="SourceGraphic" in2="effect1_dropShadow_1_5405" result="shape"/>
</filter>
</defs>
</svg>
